<svg xmlns="http://www.w3.org/2000/svg" width="16" height="16" viewBox="0 0 16 16">
  <!-- Ditto Menu Bar Icon - Microphone Design -->
  <!-- Template image, will be colored by macOS -->
  <path fill="#000000" d="M8 1C6.9 1 6 1.9 6 3v5c0 1.1.9 2 2 2s2-.9 2-2V3c0-1.1-.9-2-2-2zM4 7v1c0 2.21 1.79 4 4 4s4-1.79 4-4V7h-1v1c0 1.66-1.34 3-3 3S5 9.66 5 8V7H4zm3.5 6.93V15h1v-1.07c2.21-.24 4-1.97 4.24-4.18h-1.02c-.24 1.69-1.65 3-3.38 3.18-.17.02-.34.03-.34.03-.17 0-.34-.01-.5-.03-1.73-.18-3.14-1.49-3.38-3.18H3.1c.24 2.21 2.03 3.94 4.4 4.18z"/>
</svg>
